<svg width="64" height="64" viewBox="0 0 64 64" xmlns="http://www.w3.org/2000/svg"><path d="M32.004 60.206c-6.01 0-11.834-1.926-16.73-5.592-5.984-4.482-9.866-11.03-10.928-18.432-1.062-7.404.822-14.778 5.304-20.764 9.256-12.36 26.84-14.88 39.196-5.63a28.05 28.05 0 0 1 10.41 15.75 2 2 0 0 1-1.468 2.418 2.006 2.006 0 0 1-2.418-1.468 24.018 24.018 0 0 0-8.922-13.498c-10.586-7.93-25.66-5.768-33.596 4.826a23.836 23.836 0 0 0-4.544 17.796 23.827 23.827 0 0 0 9.368 15.796c10.596 7.94 25.668 5.774 33.6-4.82a23.708 23.708 0 0 0 4.228-9.24 2 2 0 0 1 3.91.846 27.766 27.766 0 0 1-4.936 10.792c-4.482 5.984-11.03 9.868-18.436 10.928-1.35.196-2.698.292-4.038.292z" fill="#333" class="transform-group"/></svg>
