<svg viewBox="0 0 64 64" xmlns="http://www.w3.org/2000/svg"><path d="M60 36h-8c-2.203 0-4-1.797-4-4 0-2.208 1.797-4 4-4h8c2.203 0 4 1.792 4 4 0 2.203-1.797 4-4 4zM48.973 20.686a4 4 0 0 1-5.66 0 3.995 3.995 0 0 1 0-5.655l5.66-5.654a3.99 3.99 0 0 1 5.65 0 4 4 0 0 1 0 5.655l-5.65 5.656zM32 64a4 4 0 0 1-4-4v-8a4 4 0 0 1 4-4c2.203 0 4 1.797 4 4v8c0 2.203-1.797 4-4 4zm0-48c-2.212 0-4-1.792-4-4V4c0-2.208 1.788-4 4-4 2.203 0 4 1.792 4 4v8c0 2.208-1.797 4-4 4zM15.03 54.624a3.995 3.995 0 0 1-5.654 0 3.99 3.99 0 0 1 0-5.65l5.655-5.66a3.995 3.995 0 0 1 5.656 0 4.004 4.004 0 0 1 0 5.66l-5.655 5.65zm0-33.938L9.373 15.03a3.995 3.995 0 0 1 0-5.654 4 4 0 0 1 5.654 0l5.655 5.655a3.995 3.995 0 0 1 0 5.656 3.99 3.99 0 0 1-5.65 0zM16 32a4 4 0 0 1-4 4H4a4 4 0 0 1-4-4c0-2.208 1.788-4 4-4h8a4 4 0 0 1 4 4zm32.973 11.314l5.65 5.66a3.99 3.99 0 0 1 0 5.65c-1.563 1.56-4.095 1.564-5.65 0l-5.66-5.65a4 4 0 0 1 0-5.66 4 4 0 0 1 5.66 0z" fill="#555" fill-rule="evenodd"/></svg>
