<svg viewBox="0 0 137 192" xmlns="http://www.w3.org/2000/svg"><g fill="none" fill-rule="evenodd"><path d="M78.6 139s3.9 6.3 9.5 1.6l6 3.3s.2 8.4-6.8 9.2c-8 1-15.1-8.3-15.1-8.3l6.4-5.8z" fill="#21A9F7"/><path d="M85 187.4c0 1.9-8.8 3.5-19.7 3.5-10.9 0-19.7-1.6-19.7-3.5s8.8-3.5 19.7-3.5c10.9 0 19.7 1.6 19.7 3.5" fill="#D8D8D8"/><path d="M94.7 179.1h-12c-4.7 0-8.6-3.9-8.6-8.6v-7.1c0-4.7 3.9-8.6 8.6-8.6h12c4.7 0 8.6 3.9 8.6 8.6v7.1c0 4.7-3.9 8.6-8.6 8.6" fill="#1C8DF6"/><path d="M87.8 162c-.7.3-1.5-.1-1.8-.8L78.4 142c-.3-.7.1-1.5.8-1.8.7-.3 1.5.1 1.8.8l7.6 19.2c.3.7-.1 1.5-.8 1.8" fill="#303131"/><path d="M54.6 139s-3.9 6.3-9.5 1.6l-6 3.3s-.2 8.4 6.8 9.2c8 1 15.1-8.3 15.1-8.3l-6.4-5.8z" fill="#21A9F7"/><path d="M77.4 140.4c.5-.4 3-.9 3.1-1.9.2-2.6-2.4-3.8-2.4-3.8l-4.1.4-8 .1-7.8-.1-4.2-.4s-2.9 0-2.7 2.6c.1.8 3.2.3 3.7 2.2-5.1 12.6-7.2 28.3-7.2 28.3h35.8c-.2 0-2.3-18.8-6.2-27.4" fill="#21A9F7"/><path d="M72 159.2c-.4-.6-1.2-.9-1.8-.5-2.6 1.5-5.9.6-7.3-2-1.5-2.6-.6-5.9 2-7.4 2.2-1.3 4.9-.8 6.6.9l-5.1 3c-.6.4-.9 1.2-.5 1.8.4.6 1.2.9 1.8.5l7.4-4.3c-.2-.4-.3-.8-.6-1.2-2.2-3.8-7.1-5.2-11-2.9-3.9 2.2-5.2 7.1-2.9 11 2.2 3.8 7.1 5.2 11 3 .4-.2.8-.5 1.1-.8l-.7-1.1z" fill="#FFF"/><path d="M75.1 155.2l-.7-1.1-2.3 1.3 1.3 2.3 1.1-.7c.8-.4 1-1.2.6-1.8" fill="#FFF"/><path d="M136.4 69.7c-.9 37.4-31.9 67-69.3 66.2C29.7 135 .1 104 .9 66.6 1.8 29.2 32.8-.4 70.2.4c37.5.9 67.1 31.9 66.2 69.3" fill="#21A9F7"/><path d="M126.5 43c-.6-5.5-9.6-11.6-15.3-12.3-11.2-1.4-25.9-2.9-42.5-3.4-17.9-.4-30.5.5-43 1.4-5.6.4-12.7 5.7-13.6 11-2 11.3-6.3 31.8-3.6 58.7.1.6.2 2.1.5 3.7 9.4 15.7 25.6 27.4 44.9 31.4 3.9.4 8.1.5 12.7.2 15.5-1 27.2-3.9 36-7.4 10.3-5.7 18.8-13.9 24.7-23.8 1.6-20.4.7-46.1-.8-59.5" fill="#1365B5"/><path d="M18.7 110.7c.1.8.4 1.6.9 2.2 1.5 2 4.8 5.9 10.1 9.8 7.1 5.2 19.3 11.5 37.3 12.1 18 .3 30.5-5.5 37.8-10.4 5.5-3.6 8.9-7.3 10.5-9.3.5-.6.9-1.4 1-2.2 5.4-32.1 3.5-55.6 2.2-65.3-.3-1.9-1.6-3.4-3.5-3.8-8.8-1.6-28.4-4.9-45.8-5.3-17.9-.4-37.3 2-46.1 3.2-1.8.3-3.3 1.7-3.6 3.6-1.8 9.7-4.7 33-.8 65.4m48.2 29.8c-37.5-1.2-52.3-25-52.9-26 0 0-.2-.3-.3-.5 0-.2-.1-.6-.1-.6-4.2-33-1-58.1 1.1-69.4.7-4 4.2-7.1 8.6-7.7 10.1-1.5 29.2-3.9 46.1-3.5 16.6.4 35.8 3.7 45.9 5.7 4.4.9 7.7 4.1 8.2 8.1 1.6 11.4 3.7 36.6-2.1 69.3l-.2.6c-.1.3-.3.5-.3.5-.7.9-16.6 24.1-54 23.5" fill="#1365B5"/><path d="M121.2 47.2c-.4-3.2-2.7-5.7-5.7-6.3-8.9-1.7-28.5-5-46.2-5.4-18.1-.4-37.6 2-46.4 3.2-3 .4-5.4 2.8-6 6-1.8 9.9-4.8 33.4-.8 66.2.2 1.3.7 2.6 1.5 3.7 4.1 5.5 19.1 22 49.4 22.9 30.4.4 46-15.4 50.4-20.6.8-1 1.4-2.3 1.6-3.6 5.4-32.5 3.5-56 2.2-66.1" fill="#1365B5"/><path d="M62.6 73.4a8.46 8.46 0 0 0-7.5-1.1c-1.6.5-3 1.5-4 3l-7.9 10.8c-2.8 3.2-7.6 3.8-11.1 1.3-3.7-2.7-4.6-7.9-1.9-11.6l29.2-40.3c-11.5.4-27.2 2.1-34.8 3.2-4.5.6-7.6 3.5-8.1 7.5-4.4 35.6-1.1 66.9-1.1 66.9 1.3 1.9 2.7 3.7 4.2 5.3 4.2 4.6 8.9 7.9 12.9 10.2.3-.3.6-.6.9-1L46.9 109l17.6-24.1c2.7-3.6 1.8-8.8-1.9-11.5" fill="#FFF" opacity=".1"/><path d="M47.7 167.8h35.8s-4.5 9.6-16.2 9.6c-14.2 0-19.6-9.6-19.6-9.6" fill="#303131"/><path d="M52.2 172.6s6.8 14.8 10 14.8 3.4-13 3.4-13l-13.4-1.8z" fill="#303131"/><path d="M78.3 172.6s-6.8 14.8-10 14.8-3.4-13-3.4-13l13.4-1.8z" fill="#303131"/><path d="M67 132.5c-.3 0-.6-.3-.6-.6v-5.2c0-.3.3-.6.6-.6s.6.3.6.6v5.2c0 .4-.3.6-.6.6" fill="#FFBC00"/><path d="M67 126.7v5.2l.1.1s.1 0 .1-.1v-5.2H67zm0 6.3c-.6 0-1.1-.5-1.1-1.1v-5.2c0-.6.5-1.1 1.1-1.1.6 0 1.1.5 1.1 1.1v5.2c0 .6-.5 1.1-1.1 1.1zM62.3 132.4c-.3.2-.6.1-.8-.2l-2.6-4.5c-.2-.3-.1-.6.2-.8.3-.2.6-.1.8.2l2.6 4.5c.1.3 0 .7-.2.8" fill="#FFBC00"/><path d="M59.4 127.4h-.1l2.6 4.6.3.5-.3-.4v-.1l-2.5-4.6zM62 133h-.3c-.3-.1-.5-.3-.7-.5l-2.6-4.5c-.1-.2-.2-.5-.1-.8.1-.3.3-.5.5-.6.2-.1.5-.2.8-.1.3.1.5.3.7.5l2.6 4.5c.3.5.1 1.2-.4 1.5H62zM72 132.4c.3.2.6.1.8-.2l2.6-4.5c.2-.3.1-.6-.2-.8-.3-.2-.6-.1-.8.2l-2.6 4.5c-.1.3 0 .7.2.8" fill="#FFBC00"/><path d="M74.9 127.4l-2.6 4.5-.2.5.2-.4h.1l2.6-4.5-.1-.1zm-2.6 5.6c-.2 0-.4 0-.5-.1-.5-.3-.7-1-.4-1.5l2.6-4.5c.1-.2.4-.4.7-.5.3-.1.6 0 .8.1.2.1.4.4.5.6.1.3 0 .6-.1.8l-2.6 4.5c-.2.4-.6.6-1 .6zM67 154.7c-.3 0-.6.3-.6.6v5.2c0 .3.3.6.6.6s.6-.3.6-.6v-5.2c0-.3-.3-.6-.6-.6" fill="#FFBC00"/><path d="M67 155.2l-.1 5.3h.1v-5.3zm0 6.3c-.6 0-1.1-.5-1.1-1.1v-5.2c0-.6.5-1.1 1.1-1.1.6 0 1.1.5 1.1 1.1v5.2c0 .7-.5 1.1-1.1 1.1zM62.3 154.8c-.3-.2-.6-.1-.8.2l-2.6 4.5c-.2.3-.1.6.2.8.3.2.6.1.8-.2l2.6-4.5c.1-.3 0-.7-.2-.8" fill="#FFBC00"/><path d="M62 155.2l-2.7 4.5.1.1 2.6-4.5v-.1m-2.6 5.7c-.2 0-.4 0-.5-.1-.5-.3-.7-1-.4-1.5l2.6-4.5c.1-.2.4-.4.6-.5.3-.1.6 0 .8.1.2.1.4.4.5.6.1.3 0 .6-.1.8l-2.6 4.5c-.2.4-.6.6-.9.6M72 154.8c.3-.2.6-.1.8.2l2.6 4.5c.2.3.1.6-.2.8-.3.2-.6.1-.8-.2l-2.6-4.5c-.1-.3 0-.7.2-.8" fill="#FFBC00"/><path d="M72.3 155.2l2.6 4.6.1-.1-2.7-4.5zm2.6 5.6c-.4 0-.7-.2-.9-.5l-2.6-4.5c-.1-.2-.2-.5-.1-.8.1-.3.3-.5.5-.6.2-.1.5-.2.8-.1.3.1.5.3.7.5l2.6 4.5c.3.5.1 1.2-.4 1.5h-.6z" fill="#FFBC00"/><path d="M59.9 151.6h-8.7c-4.4 0-8-3.6-8-8s3.6-8 8-8h8.6" stroke="#EC6849" stroke-width="3"/><path d="M50.3 143.5c0 3.2-2.6 5.9-5.9 5.9-3.2 0-5.9-2.6-5.9-5.9 0-3.2 2.6-5.9 5.9-5.9 3.3.1 5.9 2.7 5.9 5.9" fill="#F1D1B5"/><path d="M73.7 151.6h9.7c4.4 0 8-3.6 8-8s-3.6-8-8-8h-9.6" stroke="#EC6849" stroke-width="3"/><path d="M83 143.5c0 3.2 2.6 5.9 5.9 5.9 3.2 0 5.9-2.6 5.9-5.9 0-3.2-2.6-5.9-5.9-5.9-3.3.1-5.9 2.7-5.9 5.9" fill="#F1D1B5"/></g></svg>
