<svg width="182" height="224" viewBox="0 0 182 224" xmlns="http://www.w3.org/2000/svg" xmlns:xlink="http://www.w3.org/1999/xlink"><title>服务异常</title><defs><path id="a" d="M0 .53h135.454V191H0"/></defs><g fill="none" fill-rule="evenodd"><path d="M100.634 172.086s3.858 6.295 9.483 1.55l5.98 3.328s.19 8.39-6.773 9.238c-8 .974-15.12-8.333-15.12-8.333l6.43-5.785z" fill="#21A9F7"/><path d="M106.998 220.5c0 1.933-8.802 3.5-19.66 3.5s-19.66-1.567-19.66-3.5 8.802-3.5 19.66-3.5 19.66 1.567 19.66 3.5" fill="#D8D8D8"/><path d="M116.707 212.22H104.7c-4.725 0-8.592-3.866-8.592-8.593v-7.07c0-4.728 3.867-8.595 8.593-8.595h12.008c4.727 0 8.594 3.867 8.594 8.594v7.07c0 4.728-3.866 8.595-8.593 8.595" fill="#1C8DF6"/><path d="M109.81 195.144a1.412 1.412 0 0 1-1.833-.795l-7.58-19.18a1.412 1.412 0 0 1 2.628-1.04l7.58 19.18a1.413 1.413 0 0 1-.795 1.833" fill="#303131"/><path d="M76.63 172.086s-3.857 6.295-9.482 1.55l-5.98 3.328s-.19 8.39 6.773 9.238c8 .974 15.12-8.333 15.12-8.333l-6.43-5.785z" fill="#21A9F7"/><path d="M99.376 173.48c.512-.446 3.044-.946 3.106-1.858.182-2.625-2.444-3.803-2.444-3.803l-4.107.417-8.044.087-7.76-.084-4.22-.43s-2.876.007-2.695 2.633c.06.83 3.24.346 3.717 2.195-5.125 12.588-7.244 28.26-7.244 28.26h35.765s-2.117-18.757-6.072-27.418" fill="#21A9F7"/><path d="M93.985 192.357a1.32 1.32 0 0 0-1.808-.484.075.075 0 0 0-.028.02 5.403 5.403 0 0 1-5.365-9.38 5.404 5.404 0 0 1 6.572.913l-5.097 2.957h.003a1.322 1.322 0 0 0-.483 1.81 1.322 1.322 0 0 0 1.807.487l7.438-4.305a8.488 8.488 0 0 0-.565-1.21c-2.224-3.847-7.15-5.168-10.998-2.943a8.043 8.043 0 0 0-2.947 10.994 8.05 8.05 0 0 0 10.977 2.96l.01-.008h.003l.006-.005c.39-.225.755-.476 1.088-.753l-.61-1.053h-.002z" fill="#FFF"/><path d="M97.13 188.29l-.666-1.15-2.296 1.327 1.327 2.293 1.148-.66a1.33 1.33 0 0 0 .487-1.81" fill="#FFF"/><g transform="translate(23 33)"><mask id="b" fill="#fff"><use xlink:href="#a"/></mask><path d="M135.436 69.8c-.852 37.395-31.858 67.018-69.253 66.166C28.79 135.113-.835 104.108.018 66.713.87 29.318 31.876-.305 69.27.547c37.395.853 67.018 31.858 66.166 69.253" fill="#21A9F7" mask="url(#b)"/></g><path d="M148.542 76.108c-.597-5.518-9.586-11.563-15.34-12.28-11.215-1.395-25.893-2.948-42.495-3.35-17.892-.433-30.456.497-43.035 1.404-5.626.406-12.678 5.686-13.6 11.005-1.96 11.314-6.327 31.792-3.646 58.677.063.63.238 2.06.48 3.677 9.36 15.73 25.557 27.423 44.868 31.4 3.933.378 8.147.468 12.668.18 15.494-.98 27.23-3.88 35.99-7.4 10.293-5.697 18.84-13.9 24.69-23.752 1.823-20.41.865-46.207-.58-59.56" fill="#1365B5"/><path d="M40.692 143.79c.1.814.4 1.59.885 2.23 1.544 2.044 4.83 5.906 10.11 9.79 7.067 5.198 19.273 11.512 37.296 12.072 17.988.26 30.47-5.49 37.764-10.36 5.45-3.64 8.91-7.346 10.546-9.32.513-.62.85-1.38.987-2.188 5.39-32.124 3.48-55.564 2.18-65.32-.257-1.92-1.65-3.437-3.454-3.774-8.813-1.647-28.38-4.94-45.85-5.338-17.86-.407-37.277 1.98-46.05 3.23-1.814.258-3.27 1.707-3.613 3.61-1.744 9.678-4.724 33.014-.8 65.367m48.16 29.836c-37.515-1.166-52.295-24.987-52.905-26 0 0-.18-.268-.256-.545-.04-.15-.144-.61-.144-.61-4.226-32.95-1.01-58.12 1.067-69.432.73-3.965 4.18-7.055 8.587-7.708 10.104-1.497 29.175-3.88 46.086-3.494 16.573.378 35.763 3.728 45.88 5.726 4.36.86 7.65 4.094 8.2 8.075 1.57 11.353 3.65 36.567-2.072 69.287 0 0-.06.293-.17.587-.13.35-.282.55-.282.55-.656.985-16.506 24.108-53.992 23.564" fill="#1365B5"/><path d="M143.17 80.358c-.43-3.19-2.722-5.715-5.72-6.277-8.887-1.663-28.506-4.964-46.227-5.37-18.12-.41-37.593 1.984-46.44 3.248-3.014.43-5.41 2.848-5.982 6.007-1.8 9.93-4.78 33.415-.8 66.198a7.632 7.632 0 0 0 1.463 3.67c4.134 5.48 19.053 21.978 49.435 22.922 30.392.442 46.048-15.36 50.427-20.646a7.62 7.62 0 0 0 1.628-3.6c5.466-32.55 3.564-56.14 2.217-66.15" fill="#1365B5"/><path d="M84.633 106.54c-2.258-1.626-5.072-1.93-7.534-1.096a8.234 8.234 0 0 0-4.05 2.965c-.006.006-.01.01-.017.02l-7.87 10.8c-2.78 3.19-7.596 3.836-11.094 1.316-3.71-2.67-4.56-7.89-1.89-11.6l29.25-40.284c-11.482.4-27.232 2.15-34.837 3.18-4.514.613-7.6 3.46-8.1 7.548-4.364 35.614-1.05 66.92-1.05 66.92a45.068 45.068 0 0 0 4.205 5.296c4.186 4.555 8.88 7.908 12.865 10.245.316-.313.628-.636.896-1.01l13.536-18.58 17.574-24.12c2.67-3.71 1.822-8.93-1.887-11.6" fill="#FFF" opacity=".1"/><path d="M69.682 200.897h35.767s-4.47 9.603-16.22 9.603c-14.08 0-19.55-9.603-19.55-9.603" fill="#303131"/><path d="M74.176 205.7s6.807 14.8 9.973 14.8c3.165 0 3.415-13.035 3.415-13.035l-13.39-1.767z" fill="#303131"/><path d="M100.298 205.7s-6.807 14.8-9.973 14.8c-3.167 0-3.417-13.035-3.417-13.035l13.39-1.767z" fill="#303131"/><path d="M89.024 165.616a.572.572 0 0 1-.57-.57v-5.204c0-.314.257-.57.57-.57.313 0 .57.256.57.57v5.204c0 .314-.257.57-.57.57" fill="#FFBC00"/><path d="M88.954 159.84v5.206l.07.07a.07.07 0 0 0 .07-.07v-5.205h-.14zm.07 6.275c-.59 0-1.07-.48-1.07-1.07v-5.204a1.07 1.07 0 0 1 2.14 0v5.207c0 .59-.48 1.07-1.07 1.07zm-4.764-.575a.57.57 0 0 1-.78-.21l-2.602-4.506a.57.57 0 0 1 .987-.57l2.603 4.508c.156.27.062.62-.21.778" fill="#FFBC00"/><path d="M81.432 160.505l-.127.018 2.61 4.56.344.458-.253-.43a.073.073 0 0 0 .026-.1l-2.602-4.504zm2.545 5.612a1.077 1.077 0 0 1-.93-.536l-2.602-4.504a1.067 1.067 0 0 1-.106-.812 1.062 1.062 0 0 1 1.31-.756c.274.074.505.25.647.498l2.603 4.508a1.07 1.07 0 0 1-.39 1.46l-.002.002a1.072 1.072 0 0 1-.53.142zm10.068-.577a.57.57 0 0 0 .778-.21l2.603-4.506a.57.57 0 0 0-.987-.57l-2.604 4.508a.572.572 0 0 0 .21.778" fill="#FFBC00"/><path d="M96.914 160.472l-2.644 4.54-.225.528.25-.433a.07.07 0 0 0 .096-.026l2.604-4.504-.08-.103zm-2.586 5.645a1.07 1.07 0 0 1-.924-1.605l2.602-4.508a1.06 1.06 0 0 1 .65-.498c.277-.073.564-.036.812.108a1.07 1.07 0 0 1 .39 1.46l-2.6 4.507c-.2.345-.56.538-.93.538zm-5.304 21.697a.572.572 0 0 0-.57.57v5.204c0 .314.257.57.57.57.313 0 .57-.256.57-.57v-5.204a.572.572 0 0 0-.57-.57" fill="#FFBC00"/><path d="M89.023 188.314a.07.07 0 0 0-.07.07v5.204h.14v-5.205l-.07-.07zm0 6.344c-.59 0-1.07-.48-1.07-1.07v-5.205a1.07 1.07 0 0 1 2.14 0v5.205c0 .59-.48 1.07-1.07 1.07zm-4.763-6.768a.57.57 0 0 0-.78.21l-2.602 4.506a.57.57 0 0 0 .987.57l2.603-4.508a.572.572 0 0 0-.21-.778" fill="#FFBC00"/><path d="M83.975 188.314a.1.1 0 0 0-.02.002l-2.644 4.54.123.07 2.603-4.508-.027-.095a.063.063 0 0 0-.034-.01m-2.605 5.647a1.06 1.06 0 0 1-.532-.142 1.073 1.073 0 0 1-.392-1.462l2.603-4.508a1.06 1.06 0 0 1 .65-.498 1.06 1.06 0 0 1 .81.107c.246.142.423.373.497.65.075.275.037.563-.105.81l-2.602 4.508a1.07 1.07 0 0 1-.928.535m12.673-6.07a.57.57 0 0 1 .778.21l2.603 4.506a.57.57 0 0 1-.987.57l-2.604-4.508a.572.572 0 0 1 .21-.778" fill="#FFBC00"/><path d="M94.295 188.324a.06.06 0 0 0-.03.042l2.607 4.56.12-.07-2.6-4.508-.097-.024zm2.64 5.636c-.37 0-.73-.192-.93-.534l-2.6-4.508a1.063 1.063 0 0 1-.108-.81c.075-.278.252-.51.5-.65a1.068 1.068 0 0 1 1.46.39l2.602 4.508a1.072 1.072 0 0 1-.926 1.604z" fill="#FFBC00"/><path d="M81.888 184.68h-8.75c-4.426 0-8.048-3.623-8.048-8.05 0-4.427 3.622-8.05 8.05-8.05h8.563" stroke="#EC6849" stroke-width="3" stroke-linecap="round"/><path d="M72.308 176.63a5.867 5.867 0 1 1-11.735 0 5.867 5.867 0 0 1 11.735 0" fill="#F1D1B5"/><path d="M95.666 184.68h9.75c4.427 0 8.05-3.623 8.05-8.05 0-4.427-3.623-8.05-8.05-8.05H95.85" stroke="#EC6849" stroke-width="3" stroke-linecap="round"/><path d="M104.957 176.63a5.867 5.867 0 1 0 11.735 0 5.867 5.867 0 0 0-11.735 0" fill="#F1D1B5"/></g></svg>