<svg viewBox="0 0 100 900" xmlns="http://www.w3.org/2000/svg"><g fill="none" fill-rule="evenodd"><g transform="translate(12 5)"><ellipse fill="#F63" cx="38.518" cy="52.099" rx="38.371" ry="37.901"/><path d="M57.024.78c2.977 2.226 1.36 10.14-3.602 17.528-4.962 7.388-11.375 11.57-14.352 9.344-2.977-2.227-1.36-10.14 3.602-17.53C47.725 2.645 54.14-1.448 57.024.78z" fill="#ACCB45"/></g><path d="M13.082 151.464h72.37c1.726 0 3.123 1.422 3.123 3.133v7.09a3.14 3.14 0 0 1-3.123 3.134h-72.37c-1.726 0-3.123-1.42-3.123-3.132v-7.09c0-1.71 1.416-3.133 3.12-3.133h.002z" fill="#80A63E"/><path d="M13.082 163.213H85.37c1.726 0 3.226 1.422 3.226 3.236v6.986c0 1.73-1.418 3.236-3.226 3.236H13.082c-1.726 0-3.226-1.422-3.226-3.236v-6.988c.103-1.836 1.52-3.237 3.226-3.237v.003z" fill="#EF5B30"/><path d="M35.5 113.082h27.247c16.746 0 30.287 13.46 30.287 30.075v7.997c0 2.227-1.808 4.04-4.027 4.04H9.26c-2.22 0-4.027-1.813-4.027-4.04v-7.997c-.02-16.614 13.52-30.075 30.267-30.075zm57.74 61.57c-1.808-1.916-3.535-2.122-10.91-2.122H15.61c-7.377 0-9.083.206-10.91 2.123-1.81 2.02.1 12.347 5.444 12.347h77.65c5.364 0 7.15-10.327 5.446-12.347z" fill="#FECA30"/><path d="M91.404 280.704c2.125 2.227 2.125 5.712-.097 7.842s-5.7 2.033-7.825-.194c-2.126-2.226-2.126-5.712.096-7.84 2.126-2.13 5.604-2.034 7.826.192z" fill="#CA7A45"/><path d="M83.385 286.61c2.126 2.226 2.126 5.71-.096 7.84-2.224 2.13-5.7 2.034-7.828-.193-2.125-2.226-2.125-5.71.097-7.84 2.22-2.13 5.7-2.034 7.824.193z" fill="#CA7A45"/><path d="M75.753 271.604l11.207 11.52c.773.775.676 2.033 0 2.71L82.612 290c-.773.774-2.028.678-2.705 0l-11.303-11.62c-.773-.774-.677-2.032 0-2.71l4.347-4.163c.775-.774 2.03-.677 2.804.097z" fill="#CA7A45"/><path d="M62.324 215.165c12.656 13.07 12.463 33.883-.483 46.37-12.944 12.49-33.715 12.005-46.37-1.064-12.657-13.067-12.464-33.88.482-46.37 12.947-12.487 33.718-12.003 46.374 1.066h-.002z" fill="#F69232"/><path d="M61.744 241.013L81.55 261.44c2.415 2.516 2.318 6.486-.194 8.906L67.348 283.9c-2.512 2.42-6.473 2.322-8.888-.195L38.654 263.28c-2.415-2.518-2.318-6.487.194-8.908l14.008-13.553c2.512-2.325 6.473-2.325 8.888.192z" fill="#F69232"/><g transform="translate(15 305)"><ellipse fill="#C7D85B" cx="33.536" cy="33.536" rx="23.908" ry="20.428"/><ellipse fill="#C7D85B" cx="34.913" cy="59.233" rx="34.913" ry="29.876"/><path d="M11.007 28.267L0 53.965h20.527l5.492-16.343-15.013-9.355zm43.786-3.55l13.656 25.79-12.28 1.184-5.49-24.605 4.113-2.367z" fill="#C7D85B"/><path d="M27.828.296c2.325-.536 4.65.628 5.3 2.625L38.1 18.988c.627 1.997-.73 4.086-2.97 4.64-2.327.537-4.652-.628-5.3-2.624L24.857 4.936C24.123 2.92 25.5.832 27.828.296z" fill="#9C7660"/></g><g transform="translate(13 405)"><path d="M73.54 70.122c-.78-3.344-4.92-21.097-4.42-23.636.4-2.54 4.42-21.096 4.42-22.81V.042H.44V23.68c0 1.733 4.02 20.27 4.42 22.81.4 2.537-3.64 20.27-4.42 23.634-.78 3.344 0 19.878 0 19.878h73.1s.88-16.43 0-19.878v-.002z" fill="#1996FC"/><path d="M73.54 23.677V5.017H.44v18.66c0 1.734 4.02 20.27 4.42 22.81.4 2.538-3.64 20.27-4.42 23.635-.5 2.126-.4 9.743-.2 14.903h73.48c.2-5.18.3-12.674-.2-14.903-.78-3.344-4.92-21.097-4.42-23.636.42-2.518 4.44-21.075 4.44-22.81z" fill="#1996FC"/><path d="M73.54.062H.44v4.975h73.1V.062zM.44 90h73.1s.1-2.126.2-4.975H.26C.36 87.875.44 90 .44 90z" fill="#AADBFB"/><ellipse fill="#AADBFB" cx="37.48" cy="45.392" rx="24.08" ry="16.823"/></g><path d="M49.692 506.057L4.134 567.733s13.545 26.19 45.174 26.19c31.63 0 45.558-26.19 45.558-26.19l-45.174-61.676z" fill="#BCD84F"/><path d="M7.717 562.952c10.077 12.915 39.33 41.258 84.045.648l-42.07-57.543-41.975 56.895z" fill="#EF6C73"/><path d="M44.327 569.695c7.913-2.533 0-11.79 0-11.79s-8.39 9.257 0 11.79zm19.943-16.38c7.913-2.534 0-11.79 0-11.79s-8.37 9.256 0 11.79zm-25.23-6.458c7.912-2.533 0-11.79 0-11.79s-8.372 9.352 0 11.79z" fill="#2C2A2A"/><g transform="translate(9 607)"><path d="M37.246 44.815h7.62c.73 0 1.29.545 1.29 1.297v39.422c0 .733-.542 1.297-1.29 1.297h-7.62c-.73 0-1.29-.543-1.29-1.295V46.112c0-.752.56-1.297 1.29-1.297z" fill="#C7DA51"/><ellipse fill="#F63" cx="39.898" cy="35.495" rx="39.636" ry="35.439"/><ellipse fill="#FFD596" cx="40.458" cy="33.184" rx="13.038" ry="11.443"/><path d="M25.048 56.635c11.19 5.167 18.343 13.378 15.97 18.452-2.297 5.073-13.3 4.885-24.413-.188C5.417 69.73-1.737 61.52.635 56.445c2.298-5.074 13.206-4.886 24.413.188z" fill="#C7DA51"/><path d="M56.784 55.338C45.502 60.41 38.348 68.623 40.626 73.62c2.39 4.98 13.393 4.887 24.582-.187 11.282-5.167 18.53-13.38 16.157-18.377-2.28-4.885-13.374-4.79-24.58.282z" fill="#C7DA51"/></g><g><path d="M83.947 754.38c10.558-10.586 10.648-27.765 0-38.33-10.558-10.584-27.804-10.584-38.34 0l-13.733 13.772 38.34 38.44 13.733-13.882z" fill="#F15A24"/><path d="M15.053 784.904c10.558 10.585 27.804 10.585 38.34 0L70.1 768.15l-38.226-38.328-16.82 16.73c-10.537 10.587-10.537 27.766 0 38.352z" fill="#ECECEC"/></g><g><path d="M61.367 805.372c-1.565-.602-3.427 0-4.06 1.31l-9.67 18.533c-.718 1.31 0 2.87 1.567 3.472 1.565.602 3.427 0 4.06-1.31l9.67-18.533c.718-1.293 0-2.87-1.567-3.472z" fill="#3E445A"/><path d="M19.27 834.622s8.103 50.83 9.14 54.39c1.036 3.56 1.036 5.83 6.748 5.83h29.086c3.004 0 5.394-.267 6.135-2.783.717-2.518 9.454-57.44 9.454-57.44H19.27v.002z" fill="#0093FF"/><path d="M82.246 827.907h-65.45c-3.11 0-5.71 2.002-5.71 4.518 0 2.445 2.6 4.518 5.71 4.518h65.47c3.11 0 5.713-2.002 5.713-4.518-.023-2.516-2.604-4.518-5.735-4.518z" fill="#A8DBFD"/></g></g></svg>
