<svg width="420" height="420" viewBox="0 0 420 420" xmlns="http://www.w3.org/2000/svg" xmlns:xlink="http://www.w3.org/1999/xlink"><view viewBox="0 0 140 140"/><svg width="140" height="140" viewBox="-20 -20 140 140"><title>Slice 1</title><ellipse fill="#D3E6FF" cx="49.885" cy="50.369" rx="49.885" ry="12.369" fill-rule="evenodd"/></svg><view viewBox="140 0 140 140"/><svg width="140" height="140" viewBox="-20 -20 140 140" x="140"><title>Slice 1</title><g transform="translate(9)" fill="none" fill-rule="evenodd"><ellipse fill="#F63" cx="41.485" cy="57.645" rx="41.485" ry="41.803"/><path d="M61.537.668c3.218 2.457 1.47 11.185-3.895 19.334-5.364 8.15-12.298 12.763-15.517 10.306-3.218-2.457-1.47-11.185 3.895-19.334C51.483 2.724 58.417-1.788 61.537.668z" fill="#ACCB45"/></g></svg><view viewBox="0 140 140 140"/><svg width="140" height="140" viewBox="-20 -20 140 140" y="140"><title>Slice 1</title><g fill="none" fill-rule="evenodd"><path d="M10.09 60.622h80.412a3.484 3.484 0 0 1 3.47 3.472v7.857a3.484 3.484 0 0 1-3.47 3.475h-80.41a3.484 3.484 0 0 1-3.47-3.472v-7.856c0-1.896 1.574-3.472 3.47-3.472z" fill="#80A63E"/><path d="M10.09 73.64h80.32c1.92 0 3.585 1.577 3.585 3.587v7.743c0 1.92-1.575 3.587-3.584 3.587H10.09c-1.916 0-3.583-1.576-3.583-3.587v-7.743c.114-2.033 1.69-3.586 3.584-3.586z" fill="#EF5B30"/><path d="M35 18.09h30.274c18.607 0 33.653 14.917 33.653 33.327v8.862a4.483 4.483 0 0 1-4.475 4.474H5.845A4.483 4.483 0 0 1 1.37 60.28v-8.863C1.347 33.007 16.393 18.09 35 18.09zm64.155 68.228c-2.01-2.124-3.927-2.353-12.123-2.353H12.9c-8.197 0-10.092.23-12.124 2.353C-1.234 88.558.89 100 6.826 100h86.28c5.96 0 7.945-11.443 6.05-13.682z" fill="#FECA30"/></g></svg><view viewBox="140 140 140 140"/><svg width="140" height="140" viewBox="-20 -20 140 140" x="140" y="140"><title>Slice 1</title><g fill="none" fill-rule="evenodd"><path d="M97.2 83.19c2.343 2.448 2.343 6.278-.107 8.62-2.45 2.34-6.287 2.233-8.632-.214-2.34-2.447-2.34-6.277.11-8.617 2.344-2.344 6.18-2.237 8.63.21z" fill="#CA7A45"/><path d="M88.355 89.68c2.344 2.448 2.344 6.277-.107 8.618-2.45 2.34-6.287 2.234-8.63-.213-2.346-2.447-2.346-6.276.105-8.617 2.45-2.34 6.287-2.234 8.632.213z" fill="#CA7A45"/><path d="M79.936 73.19l12.36 12.66c.854.852.747 2.235 0 2.98l-4.794 4.574c-.852.85-2.238.745-2.984 0L72.05 80.638c-.852-.85-.745-2.234 0-2.978l4.796-4.575c.853-.85 2.238-.745 3.09.106z" fill="#CA7A45"/><path d="M65.125 11.17c13.96 14.362 13.746 37.234-.533 50.958-14.28 13.723-37.19 13.19-51.15-1.17C-.515 46.595-.302 23.722 13.977 10c14.28-13.723 37.19-13.19 51.15 1.17z" fill="#F69232"/><path d="M64.485 39.574L86.33 62.02c2.664 2.767 2.557 7.13-.213 9.79L70.667 86.7c-2.772 2.66-7.14 2.553-9.805-.213L39.017 64.042c-2.664-2.766-2.557-7.128.213-9.788L54.682 39.36c2.77-2.552 7.14-2.552 9.803.213z" fill="#F69232"/></g></svg><view viewBox="280 0 140 140"/><svg width="140" height="140" viewBox="-20 -20 140 140" x="280"><title>Slice 1</title><g transform="translate(13)" fill="none" fill-rule="evenodd"><ellipse fill="#C7D85B" cx="36.41" cy="37.262" rx="25.957" ry="22.698"/><ellipse fill="#C7D85B" cx="37.906" cy="65.815" rx="37.906" ry="33.195"/><path d="M11.95 31.408L0 59.96h22.286l5.963-18.158-16.3-10.394zm47.54-3.944L74.316 56.12l-13.33 1.314-5.962-27.34 4.466-2.63z" fill="#C7D85B"/><path d="M30.213.33c2.525-.597 5.05.697 5.753 2.916l5.4 17.85c.68 2.22-.794 4.54-3.226 5.156-2.525.596-5.05-.698-5.752-2.917l-5.402-17.85c-.795-2.24.7-4.56 3.227-5.156z" fill="#9C7660"/></g></svg><view viewBox="280 140 140 140"/><svg width="140" height="140" viewBox="-20 -20 140 140" x="280" y="140"><title>Slice 1</title><g transform="translate(8)" fill="none" fill-rule="evenodd"><path d="M84.472 77.14c-.896-3.677-5.652-23.207-5.077-26 .46-2.793 5.077-23.208 5.077-25.093V.045H.506v26.002c0 1.907 4.618 22.3 5.077 25.093.46 2.793-4.18 22.3-5.077 26-.896 3.68 0 21.87 0 21.87h83.968s1.01-18.076 0-21.87z" fill="#1996FC"/><path d="M84.472 26.047V5.517H.505v20.53c0 1.907 4.618 22.3 5.077 25.093.46 2.793-4.18 22.3-5.077 26-.574 2.34-.46 10.72-.23 16.397H84.68c.23-5.7.345-13.943-.23-16.396-.895-3.676-5.65-23.206-5.076-26 .482-2.77 5.1-23.185 5.1-25.092z" fill="#1996FC"/><path d="M84.472.068H.506V5.54h83.967V.07zM.505 99.01h83.968s.114-2.34.23-5.473H.298c.114 3.134.205 5.473.205 5.473z" fill="#AADBFB"/><ellipse fill="#AADBFB" cx="43.051" cy="49.936" rx="27.659" ry="18.508"/></g></svg><view viewBox="0 280 140 140"/><svg width="140" height="140" viewBox="-20 -20 140 140" y="280"><title>Slice 1</title><g fill="none" fill-rule="evenodd"><path d="M50.21 2.063L.148 70.047s14.885 28.87 49.642 28.87c34.757 0 50.063-28.87 50.063-28.87L50.21 2.063z" fill="#BCD84F"/><path d="M4.084 64.777c11.074 14.235 43.22 45.477 92.358.714L50.212 2.065 4.082 64.777z" fill="#EF6C73"/><path d="M44.316 72.21c8.695-2.793 0-12.997 0-12.997s-9.22 10.204 0 12.997zm21.916-18.057c8.694-2.792 0-12.996 0-12.996s-9.2 10.204 0 12.996zm-27.727-7.117c8.695-2.793 0-12.997 0-12.997s-9.2 10.307 0 12.995z" fill="#2C2A2A"/></g></svg><view viewBox="140 280 140 140"/><svg width="140" height="140" viewBox="-20 -20 140 140" x="140" y="280"><title>Slice 1</title><g transform="translate(4)" fill="none" fill-rule="evenodd"><path d="M43.15 51.512h8.83c.843 0 1.493.626 1.493 1.49v45.313c0 .843-.628 1.49-1.494 1.49h-8.83c-.846 0-1.495-.626-1.495-1.49V53.002c0-.864.65-1.49 1.493-1.49z" fill="#C7DA51"/><ellipse fill="#F63" cx="46.223" cy="40.799" rx="45.92" ry="40.734"/><ellipse fill="#FFD596" cx="46.872" cy="38.143" rx="15.105" ry="13.153"/><path d="M29.02 65.097c12.962 5.94 21.25 15.378 18.502 21.21-2.662 5.83-15.408 5.615-28.284-.216C6.276 80.15-2.012 70.716.736 64.88c2.66-5.83 15.3-5.614 28.283.217z" fill="#C7DA51"/><path d="M65.786 63.607c-13.07 5.83-21.36 15.27-18.72 21.015 2.77 5.724 15.517 5.616 28.48-.216 13.07-5.94 21.467-15.378 18.718-21.123-2.64-5.616-15.494-5.508-28.478.324z" fill="#C7DA51"/></g></svg><view viewBox="280 280 140 140"/><svg width="140" height="140" viewBox="-20 -20 140 140" x="280" y="280"><title>Slice 1</title><g fill="none" fill-rule="evenodd"><path d="M62.33.41c-1.627-.664-3.56 0-4.22 1.447L48.066 22.3c-.747 1.446 0 3.166 1.626 3.83 1.627.665 3.56 0 4.22-1.445L63.956 4.24c.747-1.426 0-3.165-1.626-3.83z" fill="#3E445A"/><path d="M18.593 32.678S27.01 88.75 28.088 92.68c1.077 3.928 1.077 6.43 7.01 6.43h30.22c3.122 0 5.605-.293 6.374-3.07.748-2.774 9.824-63.362 9.824-63.362H18.593z" fill="#0093FF"/><path d="M84.022 25.27h-68c-3.23 0-5.934 2.21-5.934 4.985 0 2.697 2.703 4.984 5.934 4.984h68.022c3.23 0 5.934-2.21 5.934-4.987-.022-2.776-2.703-4.984-5.956-4.984z" fill="#A8DBFD"/></g></svg></svg>